<svg xmlns="http://www.w3.org/2000/svg" width="47.954" height="44.526" viewBox="0 0 47.954 44.526"><defs><style>.a{fill:#fff;}</style></defs><g transform="translate(0 0)"><path class="a" d="M41.441,27.569,43.684,28.9l4.487-2.659-6.73-4.154Z" transform="translate(-11.791 -8.299)"/><path class="a" d="M43.271,14.3l1.6-2.99c1.281-2.327-2.4-4.986-4.167-5.981s-5.769-3.158-7.051-.665L31.412,8.647a34.619,34.619,0,0,0-7.372-.831C10.738,7.816,0,15.294,0,24.433S10.738,41.049,24.04,41.049H24.2c.16,1.994-2.083,5.317-5.289,6.978a22.008,22.008,0,0,0,18.431-9.8c6.41-2.991,10.577-7.976,10.577-13.792C48.24,20.611,46.316,17.121,43.271,14.3ZM11.058,29.086A2.329,2.329,0,1,1,13.3,26.758,2.335,2.335,0,0,1,11.058,29.086Zm5.93,0a2.329,2.329,0,1,1,2.244-2.328A2.234,2.234,0,0,1,16.987,29.086Zm5.93,0a2.329,2.329,0,1,1,2.244-2.328A2.234,2.234,0,0,1,22.918,29.086ZM37.182,21.94,32.534,24.6l-3.847,2.159V16.789L35.1,5.323c.32-.665,2.564,0,4.967,1.329s4.007,2.99,3.526,3.656Z" transform="translate(0 -3.501)"/></g></svg>