<svg xmlns="http://www.w3.org/2000/svg" width="36.25" height="50.651" viewBox="0 0 36.25 50.651"><defs><style>.a{fill:#0062cd;}</style></defs><path class="a" d="M55.523,1.746c-1.388-2.368-2.858-2.286-4.246,0-6.368,9.471-16,23.677-16,30.78a18.125,18.125,0,1,0,36.25,0C71.525,25.341,61.891,11.216,55.523,1.746Zm10.94,38.863a15.5,15.5,0,0,1-5.47,5.307,2.193,2.193,0,0,1-2.123-3.837,10.808,10.808,0,0,0,3.919-3.756A10.643,10.643,0,0,0,64.422,33.1a2.167,2.167,0,1,1,4.327.245A16.175,16.175,0,0,1,66.463,40.609Z" transform="translate(-35.275 0)"/></svg>