<svg xmlns="http://www.w3.org/2000/svg" width="56" height="58" viewBox="0 0 56 58"><defs><style>.a{fill:#fff;}</style></defs><path class="a" d="M28.215,32.394a6.168,6.168,0,0,0-2.63,2.461c-.022.042-.043.084-.064.126.159.013.319.019.479.019,4.963,0,9-5.832,9-13S30.963,9,26,9s-9,5.832-9,13a16.545,16.545,0,0,0,2.345,8.71c.049-.054.105-.1.155-.158.226-.243.46-.481.7-.717.09-.087.178-.173.27-.259q.165-.155.334-.307A14.555,14.555,0,0,1,19,22c0-6.58,3.619-11,7-11s7,4.42,7,11a15.011,15.011,0,0,1-.127,1.983V24a13.293,13.293,0,0,1-2.153,6.027q-.243.351-.509.671a1.049,1.049,0,0,1-.092.1A6.967,6.967,0,0,1,28.215,32.394Z"/><path class="a" d="M30.887,23.756A13.136,13.136,0,0,0,31,22c0-5.576-2.912-9-5-9s-5,3.424-5,9a12.718,12.718,0,0,0,1.394,6,27.252,27.252,0,0,1,7.424-3.319c.339-.11.646-.214.961-.32C30.812,24.161,30.863,23.965,30.887,23.756Z"/><path class="a" d="M47,9H42.853a34.788,34.788,0,0,1,2.056,10.156,2.988,2.988,0,1,1-2,.056A32.017,32.017,0,0,0,40.693,9H42.85c-.18-.48-.37-.95-.58-1.41-.09-.2-.18-.4-.27-.59-2.15-4.46-5.22-7-8.5-7-3.42,0-6.62,2.77-8.77,7.59a.987.987,0,0,0,.22,1.13.437.437,0,0,0,.11.09.948.948,0,0,0,.17.1,1.013,1.013,0,0,0,.41.09.982.982,0,0,0,.91-.59c.22-.5.46-.97.69-1.41,1.75-3.2,3.98-5,6.26-5s4.51,1.8,6.26,5c.23.44.47.91.69,1.41a6.058,6.058,0,0,1,.24.59H31.464C34.767,11.591,37,16.442,37,22s-2.233,10.409-5.536,13H47c4.963,0,9-5.832,9-13S51.963,9,47,9Z"/><circle class="a" cx="1" cy="1" r="1" transform="translate(43 21)"/><path class="a" d="M19,58c11.2,0,19-3.426,19-6.5,0-2.526-5.649-5.582-14.831-6.325a6.9,6.9,0,0,0,.222,1.7,3.127,3.127,0,0,0,1.925,2.175,1,1,0,1,1-.632,1.9,5.081,5.081,0,0,1-3.222-3.544,14.867,14.867,0,0,1,.219-6.63l.086-.46a25.333,25.333,0,0,1,1.386-4.951c.206-.507.426-.988.657-1.43a8.073,8.073,0,0,1,3.433-3.288,5.077,5.077,0,0,0,1.415-1.223.835.835,0,0,1,.058-.061l.011-.012.012-.012c.169-.21.312-.455.464-.689.1-.157.219-.3.313-.464a10.235,10.235,0,0,0,.544-1.161c.025-.061.058-.113.081-.175s.036-.125.058-.184a22.6,22.6,0,0,0-7.455,3.569,18.388,18.388,0,0,0-2.691,2.727,13.517,13.517,0,0,0-2.546,5.032c-.215.823-.374,1.657-.542,2.541a28.514,28.514,0,0,1-.947,3.922v.007a11.419,11.419,0,0,1-.995,2.194,6.3,6.3,0,0,1-5.458,3.37,6.053,6.053,0,0,1-.669-.036,1,1,0,0,1-.888-1.1A.988.988,0,0,1,9.108,48,4.355,4.355,0,0,0,13.3,45.641c.066-.111.12-.234.182-.349C5.007,46.22,0,49.087,0,51.5,0,54.574,7.8,58,19,58ZM5.143,52.485a1,1,0,0,1,1.369-.344c.048.028,4.872,2.81,13.378,1.865a1,1,0,0,1,.22,1.988,33.763,33.763,0,0,1-3.737.211c-6.883,0-10.7-2.237-10.888-2.348A1,1,0,0,1,5.143,52.485Z"/></svg>