<svg xmlns="http://www.w3.org/2000/svg" width="53.846" height="51.18" viewBox="0 0 53.846 51.18"><defs><style>.a{fill:#0062cd;}</style></defs><g transform="translate(0 0)"><path class="a" d="M52.941,35.414,28.782,13.4a2.749,2.749,0,0,0-3.719,0L.9,35.414a2.761,2.761,0,0,0,1.86,4.8H6.623V62.271a1.584,1.584,0,0,0,1.583,1.583H21.448a1.584,1.584,0,0,0,1.583-1.583V48.88h7.783V62.272A1.584,1.584,0,0,0,32.4,63.855H45.639a1.584,1.584,0,0,0,1.583-1.583V40.216h3.859a2.761,2.761,0,0,0,1.859-4.8Z" transform="translate(0 -12.675)"/></g><g transform="translate(36.175 3.161)"><path class="a" d="M354.607,42.73H343.973l12.218,11.109V44.313A1.583,1.583,0,0,0,354.607,42.73Z" transform="translate(-343.973 -42.73)"/></g></svg>