<svg xmlns="http://www.w3.org/2000/svg" width="55" height="55" viewBox="0 0 55 55"><defs><style>.a{fill:#fff;}</style></defs><path class="a" d="M27.133,0,0,27.133v8.647L35.781,0Z"/><path class="a" d="M6.111,0A6.129,6.129,0,0,0,0,6.111v6.126L12.238,0Z"/><path class="a" d="M352.213,1.6Z" transform="translate(-301.766 -1.371)"/><path class="a" d="M134.187,169.967h8.647l27.133-27.133v-8.647Z" transform="translate(-114.968 -114.968)"/><path class="a" d="M51.818,1.6,1.6,51.818a6.023,6.023,0,0,0,1.558,2.75l.015.015a6.024,6.024,0,0,0,2.75,1.558L56.142,5.924A6.12,6.12,0,0,0,51.818,1.6Z" transform="translate(-1.371 -1.371)"/><path class="a" d="M304.686,310.8a6.129,6.129,0,0,0,6.111-6.111V298.56L298.56,310.8Z" transform="translate(-255.798 -255.798)"/></svg>