<svg xmlns="http://www.w3.org/2000/svg" width="48.57" height="48" viewBox="0 0 48.57 48"><defs><style>.a{fill:#fff;}</style></defs><g transform="translate(0 -1.817)"><path class="a" d="M42.628,3.67A50.216,50.216,0,0,0,28.283,1.817,50.212,50.212,0,0,0,13.938,3.67C10.161,4.848,8,6.479,8,8.144c0,.041,0,.082,0,.123v1.872a59.3,59.3,0,0,0-4.335,5.076C.254,19.754-.762,22.974.558,25.059a4.093,4.093,0,0,0,2.961,1.82,6.893,6.893,0,0,0,1.075.08c4.277,0,13.145-4.544,21.086-10.806a.549.549,0,0,0,.2-.344,2.432,2.432,0,1,1,2.4,2.819,2.4,2.4,0,0,1-.744-.118.549.549,0,0,0-.509.091c-6.364,5.01-13.336,9.037-18.651,10.772A.549.549,0,0,0,8,29.894V46.622a.549.549,0,0,0,.382.523,68.21,68.21,0,0,0,19.9,2.673,68.22,68.22,0,0,0,19.9-2.673.549.549,0,0,0,.382-.523V8.274c0-.044,0-.086,0-.129C48.57,6.479,46.4,4.848,42.628,3.67ZM8,23.528a9.234,9.234,0,0,1-4.048.631c-.784-.125-.99-.45-1.068-.573-.434-.687.082-2.852,2.967-6.7C6.482,16.05,7.2,15.158,8,14.237v9.291ZM28.283,6.043A50.6,50.6,0,0,1,39.664,7.238a22.7,22.7,0,0,1,2.964.907,22.667,22.667,0,0,1-2.964.907,50.587,50.587,0,0,1-11.38,1.195A50.6,50.6,0,0,1,16.9,9.051a22.606,22.606,0,0,1-2.963-.907A22.686,22.686,0,0,1,16.9,7.238,50.611,50.611,0,0,1,28.283,6.043Z" transform="translate(0)"/></g></svg>