<svg xmlns="http://www.w3.org/2000/svg" width="50.392" height="50.392" viewBox="0 0 50.392 50.392"><defs><style>.a{fill:#fff;}</style></defs><g transform="translate(0 0)"><path class="a" d="M185.324,19.607a1.7,1.7,0,0,0,0-2.4l-2.55-2.55a1.7,1.7,0,0,0-2.156-.2l-5.361,3.644,3.622-5.4a1.7,1.7,0,0,0-.21-2.148l-5.531-5.531a1.7,1.7,0,0,0-1.938-.329l-.956.46.458-1.016a1.7,1.7,0,0,0-.348-1.9L168.617.5a1.7,1.7,0,0,0-2.4,0L152.729,13.983l19.109,19.109Z" transform="translate(-135.43)"/><path class="a" d="M14.788,145.622l-3.9,3.9a1.7,1.7,0,0,0,0,2.4l3.7,3.7a3.31,3.31,0,0,1-.565,5.134c-10.881,6.936-11.9,7.951-12.229,8.284a6.135,6.135,0,0,0,8.676,8.676c.333-.333,1.348-1.348,8.284-12.229a3.315,3.315,0,0,1,5.133-.565l3.7,3.7a1.7,1.7,0,0,0,2.4,0l3.9-3.9ZM7.934,174.981a2.4,2.4,0,1,1,0-3.4A2.4,2.4,0,0,1,7.934,174.981Z" transform="translate(0 -129.127)"/></g></svg>