<svg xmlns="http://www.w3.org/2000/svg" width="38.736" height="38.736" viewBox="0 0 38.736 38.736"><defs><style>.a{fill:#edfe0c;}.b{fill:#d62159;}.c{fill:#10e8b4;}.d{fill:#ff9e0d;}.e{fill:#fff;}</style></defs><path class="a" d="M62.918,34.724l4.529-7.844-9.378-5.415L44.16,45.553Zm0,0" transform="translate(-40.819 -19.841)"/><path class="b" d="M127.553,172.7l7.312-4.222-5.414-9.378-23.556,13.6Zm0,0" transform="translate(-97.883 -147.061)"/><path class="c" d="M10.829,0H0V26.96L10.829,8.2Zm0,0"/><path class="d" d="M173.141,368.859h25.637v10.829H173.141Zm0,0" transform="translate(-160.042 -340.953)"/><path class="e" d="M61.7,431.309a.747.747,0,1,0,.747-.747A.748.748,0,0,0,61.7,431.309Zm0,0" transform="translate(-57.031 -397.988)"/><path class="e" d="M0,374.274a5.421,5.421,0,0,0,5.415,5.415h5.415V368.859H5.415A5.421,5.421,0,0,0,0,374.274Zm8.431,0a3.016,3.016,0,1,1-3.016-3.016A3.02,3.02,0,0,1,8.431,374.274Zm0,0" transform="translate(0 -340.953)"/></svg>